<svg id="visual" viewBox="0 0 1920 1938" width="1920" height="1938" xmlns="http://www.w3.org/2000/svg" xmlns:xlink="http://www.w3.org/1999/xlink" version="1.1"><path d="M0 621L175 621L175 660L349 660L349 524L524 524L524 486L698 486L698 427L873 427L873 253L1047 253L1047 505L1222 505L1222 544L1396 544L1396 369L1571 369L1571 582L1745 582L1745 524L1920 524L1920 524L1920 0L1920 0L1745 0L1745 0L1571 0L1571 0L1396 0L1396 0L1222 0L1222 0L1047 0L1047 0L873 0L873 0L698 0L698 0L524 0L524 0L349 0L349 0L175 0L175 0L0 0Z" fill="#ffffff"></path><path d="M0 931L175 931L175 970L349 970L349 737L524 737L524 796L698 796L698 776L873 776L873 389L1047 389L1047 815L1222 815L1222 757L1396 757L1396 641L1571 641L1571 834L1745 834L1745 834L1920 834L1920 815L1920 522L1920 522L1745 522L1745 580L1571 580L1571 367L1396 367L1396 542L1222 542L1222 503L1047 503L1047 251L873 251L873 425L698 425L698 484L524 484L524 522L349 522L349 658L175 658L175 619L0 619Z" fill="#f8fafe"></path><path d="M0 1048L175 1048L175 1106L349 1106L349 815L524 815L524 873L698 873L698 873L873 873L873 524L1047 524L1047 1009L1222 1009L1222 834L1396 834L1396 757L1571 757L1571 931L1745 931L1745 1028L1920 1028L1920 1009L1920 813L1920 832L1745 832L1745 832L1571 832L1571 639L1396 639L1396 755L1222 755L1222 813L1047 813L1047 387L873 387L873 774L698 774L698 794L524 794L524 735L349 735L349 968L175 968L175 929L0 929Z" fill="#f2f6fe"></path><path d="M0 1455L175 1455L175 1435L349 1435L349 1358L524 1358L524 1241L698 1241L698 1222L873 1222L873 1338L1047 1338L1047 1377L1222 1377L1222 1183L1396 1183L1396 1416L1571 1416L1571 1571L1745 1571L1745 1455L1920 1455L1920 1358L1920 1007L1920 1026L1745 1026L1745 929L1571 929L1571 755L1396 755L1396 832L1222 832L1222 1007L1047 1007L1047 522L873 522L873 871L698 871L698 871L524 871L524 813L349 813L349 1104L175 1104L175 1046L0 1046Z" fill="#ebf1fd"></path><path d="M0 1706L175 1706L175 1706L349 1706L349 1551L524 1551L524 1687L698 1687L698 1590L873 1590L873 1648L1047 1648L1047 1726L1222 1726L1222 1648L1396 1648L1396 1610L1571 1610L1571 1726L1745 1726L1745 1648L1920 1648L1920 1629L1920 1356L1920 1453L1745 1453L1745 1569L1571 1569L1571 1414L1396 1414L1396 1181L1222 1181L1222 1375L1047 1375L1047 1336L873 1336L873 1220L698 1220L698 1239L524 1239L524 1356L349 1356L349 1433L175 1433L175 1453L0 1453Z" fill="#e4ecfc"></path><path d="M0 1842L175 1842L175 1861L349 1861L349 1765L524 1765L524 1842L698 1842L698 1726L873 1726L873 1745L1047 1745L1047 1861L1222 1861L1222 1842L1396 1842L1396 1803L1571 1803L1571 1842L1745 1842L1745 1803L1920 1803L1920 1706L1920 1627L1920 1646L1745 1646L1745 1724L1571 1724L1571 1608L1396 1608L1396 1646L1222 1646L1222 1724L1047 1724L1047 1646L873 1646L873 1588L698 1588L698 1685L524 1685L524 1549L349 1549L349 1704L175 1704L175 1704L0 1704Z" fill="#dde8fc"></path><path d="M0 1939L175 1939L175 1939L349 1939L349 1939L524 1939L524 1939L698 1939L698 1939L873 1939L873 1939L1047 1939L1047 1939L1222 1939L1222 1939L1396 1939L1396 1939L1571 1939L1571 1939L1745 1939L1745 1939L1920 1939L1920 1939L1920 1704L1920 1801L1745 1801L1745 1840L1571 1840L1571 1801L1396 1801L1396 1840L1222 1840L1222 1859L1047 1859L1047 1743L873 1743L873 1724L698 1724L698 1840L524 1840L524 1763L349 1763L349 1859L175 1859L175 1840L0 1840Z" fill="#d6e3fb"></path></svg>